<svg xmlns="http://www.w3.org/2000/svg" width="69" height="54" viewBox="0 0 69 54" fill="none">
<path d="M62.506 6.97972H34.6673L29.1224 0.306524C28.9569 0.105172 28.7089 -0.00774894 28.4503 0.00041399H6.04897C2.69583 0.0340861 -0.00386047 2.79673 4.14398e-06 6.19063V47.0053C-0.000163883 50.3965 2.69851 53.1552 6.04897 53.1887H62.506C65.8564 53.1552 68.5551 50.3965 68.5549 47.0053V13.1631C68.5551 9.77195 65.8564 7.01339 62.506 6.97972Z" fill="#90CB93"/>
<path d="M29.856 32.7377H23.064L21.864 36.1457H18.288L24.528 19.3937H28.392L34.608 36.1457H31.032L29.856 32.7377ZM28.944 30.1697L26.448 23.0177L23.952 30.1697H28.944ZM41.6424 22.6817C42.7624 22.6817 43.7224 22.9457 44.5224 23.4737C45.3224 24.0017 45.8904 24.7137 46.2264 25.6097V22.8497H49.5864V36.1457H46.2264V33.3617C45.8904 34.2577 45.3224 34.9777 44.5224 35.5217C43.7224 36.0497 42.7624 36.3137 41.6424 36.3137C40.5224 36.3137 39.5144 36.0417 38.6184 35.4977C37.7224 34.9537 37.0184 34.1697 36.5064 33.1457C36.0104 32.1057 35.7624 30.8897 35.7624 29.4977C35.7624 28.1057 36.0104 26.8977 36.5064 25.8737C37.0184 24.8337 37.7224 24.0417 38.6184 23.4977C39.5144 22.9537 40.5224 22.6817 41.6424 22.6817ZM42.6984 25.6337C41.6424 25.6337 40.7944 25.9777 40.1544 26.6657C39.5144 27.3537 39.1944 28.2977 39.1944 29.4977C39.1944 30.6977 39.5144 31.6417 40.1544 32.3297C40.7944 33.0017 41.6424 33.3377 42.6984 33.3377C43.7224 33.3377 44.5624 32.9937 45.2184 32.3057C45.8904 31.6017 46.2264 30.6657 46.2264 29.4977C46.2264 28.3137 45.8904 27.3777 45.2184 26.6897C44.5624 25.9857 43.7224 25.6337 42.6984 25.6337Z" fill="white"/>
</svg>