<svg xmlns="http://www.w3.org/2000/svg" width="120" height="30" viewBox="0 0 120 30" fill="none">
<path d="M115.839 4.46521V11.2277H118.187V14.4974H115.839V20.591C115.839 21.1856 115.985 21.6314 116.279 21.9287C116.572 22.2259 117.013 22.3746 117.6 22.3746C117.893 22.3746 119.287 22.3746 119.287 22.3746V26.2388C119.287 26.2388 116.719 26.2388 116.352 26.2388C115.178 26.2388 113.711 26.0159 112.683 25.0498C111.656 24.0837 111.216 22.8204 111.216 21.0369V14.4231H109.088V11.1533H111.216V4.46521H115.839ZM102.118 26.5361C99.9901 26.5361 98.1555 25.793 96.9083 24.4553C95.5875 23.1177 95.0006 21.3342 95.0006 19.2534V18.7333C95.0006 16.4295 95.5875 14.5717 96.7615 13.0855C97.9354 11.6736 99.6231 10.9304 101.824 10.9304C103.806 10.9304 105.42 11.5249 106.52 12.7139C107.694 13.9772 108.208 15.6121 108.208 17.6929V20.1452H99.77V20.2195C99.8432 21.0369 100.21 21.5572 100.724 22.0773C101.237 22.5975 101.971 22.8204 102.778 22.8204C103.659 22.8204 104.319 22.7461 104.833 22.5975C105.346 22.4489 106.08 22.226 106.814 21.8544L107.914 24.7525C107.254 25.2728 106.447 25.6443 105.42 26.0159C104.393 26.3875 103.219 26.5361 102.118 26.5361ZM101.751 14.4974C101.091 14.4974 100.577 14.7204 100.283 15.2405C99.9901 15.7607 99.77 16.4295 99.6963 17.1727L99.77 17.247H103.732V16.8754C103.732 16.058 103.585 15.5378 103.292 15.1663C102.852 14.6461 102.411 14.4974 101.751 14.4974ZM86.6362 26.5361C84.5084 26.5361 82.6738 25.793 81.4267 24.4553C80.1795 23.1177 79.5189 21.3342 79.5189 19.2534V18.7333C79.5189 16.4295 80.1059 14.5717 81.2798 13.0855C82.4537 11.6736 84.1414 10.9304 86.3424 10.9304C88.3239 10.9304 89.9379 11.5249 91.0387 12.7139C92.1389 13.9029 92.7259 15.6121 92.7259 17.6929V20.1452H84.2883V20.2195C84.3615 21.0369 84.7284 21.5572 85.2422 22.0773C85.7555 22.5975 86.4893 22.8204 87.2963 22.8204C88.177 22.8204 88.8372 22.7461 89.351 22.5975C89.8647 22.4489 90.5981 22.226 91.3319 21.8544L92.4327 24.7525C91.772 25.2728 90.965 25.6443 89.9379 26.0159C88.984 26.3875 87.8101 26.5361 86.6362 26.5361ZM86.3424 14.4974C85.6823 14.4974 85.1685 14.7204 84.8753 15.2405C84.5815 15.7607 84.3615 16.4295 84.2883 17.1727L84.3615 17.247H88.3239V16.8754C88.3239 16.058 88.177 15.5378 87.8833 15.1663C87.4432 14.6461 87.0031 14.4974 86.3424 14.4974ZM72.6221 19.8479L74.2362 11.0791H78.4181L75.0432 26.1645H71.1545L68.7334 18.1388H68.6597L66.2387 26.1645H62.35L58.9013 11.1533H63.157L64.771 19.9966H64.8442L67.1926 11.1533H70.1274L72.6221 19.8479ZM53.178 21.9287C53.178 21.5571 52.958 21.1856 52.5179 20.8883C52.0778 20.591 51.3439 20.2938 50.2432 20.0709C48.5557 19.6993 47.2349 19.1792 46.3545 18.5103C45.474 17.7672 45.0338 16.8011 45.0338 15.5378C45.0338 14.2002 45.6207 13.0855 46.648 12.1194C47.7486 11.1533 49.2161 10.7818 51.0502 10.7818C52.958 10.7818 54.572 11.2277 55.6728 12.1194C56.8467 13.0112 57.3605 14.1259 57.2868 15.6121V15.6864H52.8848C52.8848 15.0919 52.7379 14.646 52.4442 14.3488C52.151 14.0516 51.6372 13.9029 51.0502 13.9029C50.5369 13.9029 50.17 14.0516 49.8031 14.3488C49.4362 14.646 49.2893 14.9433 49.2893 15.3892C49.2893 15.8351 49.5094 16.1323 49.8763 16.4295C50.2432 16.7268 51.0502 16.9498 52.151 17.1727C53.9119 17.5442 55.3058 18.0645 56.1129 18.7333C56.9936 19.4764 57.4337 20.4425 57.4337 21.7801C57.4337 23.1177 56.8467 24.2324 55.6728 25.1241C54.4988 26.0159 52.958 26.4617 51.0502 26.4617C49.0693 26.4617 47.4551 25.9416 46.2811 24.9012C45.1072 23.8608 44.5935 22.7461 44.6669 21.4085V21.3342H48.8492C48.8492 22.0773 49.0693 22.5975 49.5094 22.8204C49.95 23.0434 50.5369 23.3407 51.1971 23.3407C51.8572 23.3407 52.2978 23.192 52.5911 22.9691C53.0312 22.7461 53.178 22.3746 53.178 21.9287ZM33.2207 11.0791L33.3675 13.1598C33.8811 12.4167 34.4681 11.8222 35.1285 11.4506C35.8622 11.0048 36.5959 10.7818 37.4764 10.7818C38.8705 10.7818 40.0444 11.302 40.8515 12.1938C41.6586 13.0855 42.0988 14.646 42.0988 16.7268V26.1645H37.6231V16.8011C37.6231 15.9094 37.4764 15.3892 37.1095 15.0176C36.7426 14.646 36.229 14.4974 35.5687 14.4974C35.1285 14.4974 34.7616 14.5718 34.3947 14.7204C34.0279 14.869 33.7344 15.0919 33.5142 15.3892V26.2388H28.9651V11.1533H33.2207V11.0791ZM26.177 8.25519H21.5545V4.46521H26.177V8.25519ZM26.177 26.2388H21.5545V11.1533H26.177V26.2388ZM11.4291 26.2388V14.3488H9.30124V11.0791H11.4291V9.51849C11.4291 7.8093 11.9426 6.47168 12.8965 5.50563C13.9237 4.53958 15.4645 4.31661 16.5651 4.31661C16.932 4.31661 19.5 4.31661 19.5 4.31661V8.10654C19.5 8.10654 18.1059 8.10654 17.8125 8.10654C17.2255 8.10654 16.7852 8.25519 16.4918 8.55243C16.1983 8.84968 16.0515 9.29557 16.0515 9.89005V11.0048H18.9131V14.2745H16.0515V26.0902H11.4291V26.2388ZM2.6243 5.72855C2.6243 1.19548 4.97221 0.823914 8.93437 0.823914V4.39093C7.10003 4.39093 6.3663 4.68818 6.3663 5.80288V11.6736C6.3663 13.0112 6.43968 14.4231 5.33908 15.3148C6.43968 16.2066 6.3663 17.5442 6.3663 18.9562V24.8269C6.3663 26.0159 7.10003 26.2388 8.93437 26.2388V29.8058C4.97221 29.8058 2.6243 29.4343 2.6243 24.9012V18.9562C2.6243 17.9901 2.6243 16.9498 0.789978 16.9498V15.3892V13.8286C2.6243 13.8286 2.6243 12.7139 2.6243 11.8222V5.72855Z" fill="#394149"/>
</svg>